# xmcd CD database file
# Copyright (C) 1993-1996 Ti Kan
#
# Track frame offsets:
# 150
# 15442
# 30697
# 42902
# 56520
# 71190
# 84585
# 98510
# 116205
# 131575
#
# Disc length: 2017 seconds
#
# Revision: 0
# Processed by: cddbd v1.4PL0 Copyright (c) Steve Scherf et al.
# Submitted via: inCDius 1.1b5
#
DISCID=8007df0a
DTITLE=David Allen Coe - Super Hits Vol. 2
DYEAR=1900
DGENRE=Country
TTITLE0=Long Haired Redneck
TTITLE1=Lately I've Been Thinking Too Much Lately
TTITLE2=Southern Star
TTITLE3=Tennessee Whiskey
TTITLE4=I've Already Cheated On You
TTITLE5=Take This Job And Shove It
TTITLE6=She Used To Love Me A Lot
TTITLE7=Son Of The South
TTITLE8=Now I Lay Me Down To Cheat
TTITLE9=Gotta Serve Somebody
EXTD=
EXTT0=
EXTT1=
EXTT2=
EXTT3=
EXTT4=
EXTT5=
EXTT6=
EXTT7=
EXTT8=
EXTT9=With Lacy J. Dalton
PLAYORDER=
